# xmcd
# 
# Track frame offsets:
#     150
#     18435
#     35450
#     65395
# 
# Disc length: 1302
# 
# Revision: 2
# Processed by: cddbd v1.5.2PL0 Copyright (c) Steve Scherf et al.
# Submitted via: fre:ac v1.0.31
# 
DISCID=2a051404
DTITLE=AQUA - Good Morning Sunshine
DYEAR=1998
DGENRE=New Age
TTITLE0=Good Morning Sunshine [Radio Edit]
TTITLE1=Good Morning Sunshine [Love To Infinity's Radio Mix]
TTITLE2=Good Morning Sunshine [Love To Infinity's Master Mix]
TTITLE3=Good Morning Sunshine [Love To Infinity's Nassaunautics Mix]
EXTD=
EXTT0=
EXTT1=
EXTT2=
EXTT3=
PLAYORDER=
